<svg id="Layer_1" data-name="Layer 1" xmlns="http://www.w3.org/2000/svg" viewBox="0 0 1000 1000">
    <defs>
        <style>
            .the-psa-logo{fill:#fff}
        </style>
    </defs>
    <path class="the-psa-logo" d="M.1 1000h37.6V886.58h67.93c72.33 0 104.93-44 104.93-98.87S178 689.46 105 689.46H.1zm37.6-146.78V722.81h66.11c50.5 0 69.76 27.6 69.76 64.9s-19.26 65.51-69.15 65.51zM550.43 761.09h36.4c-1.67-46.85-44.89-81.88-104.93-81.88-59.44 0-106.15 34.57-106.15 86.73 0 41.85 30.33 66.72 78.85 80.67l38.21 10.92c32.76 9.1 61.87 20.62 61.87 51.56 0 34-32.75 56.4-75.82 56.4-37 0-69.75-16.37-72.78-51.55h-38.82c3.64 50.95 44.88 85.52 111.6 85.52 71.57 0 112.21-39.43 112.21-89.77 0-58.23-55.19-77-87.34-85.52l-31.54-8.49c-23.05-6.07-60.05-18.2-60.05-51.56 0-29.72 27.3-51.55 68.54-51.55 37.61 0 66.11 17.89 69.75 48.52zM771.34 1000l31.24-88h125.55l31.24 88h39.42l-114-310.54H846L731.92 1000zm43.07-121.31l49.73-140.11h2.43l49.73 140.11z"/>
    <path class="the-psa-logo" d="M0 0h1000v599c-147.62-84.6-318.66-133-501-133-181.52 0-351.84 47.93-499 131.83zm900 248a74 74 0 11-74-74 74 74 0 0174 74z" fill-rule="evenodd" fill="#fff"/>
</svg>